<?xml version="1.0" encoding="utf-8"?>
<!-- Generator: Adobe Illustrator 21.1.0, SVG Export Plug-In . SVG Version: 6.00 Build 0)  -->
<svg version="1.1" id="Layer_1" xmlns="http://www.w3.org/2000/svg" xmlns:xlink="http://www.w3.org/1999/xlink" x="0px" y="0px"
	 viewBox="0 0 213.3 29.8" style="enable-background:new 0 0 213.3 29.8;" xml:space="preserve">
<style type="text/css">
	.st0{fill:#FDB813;}
	.st1{clip-path:url(#SVGID_2_);fill:#FDB813;}
</style>
<polygon class="st0" points="13.6,10 13.6,23.5 3.4,10 0,10 0,29.4 3.5,29.4 3.5,15.6 14,29.4 17.1,29.4 17.1,10 "/>
<g>
	<defs>
		<rect id="SVGID_1_" width="213.3" height="29.8"/>
	</defs>
	<clipPath id="SVGID_2_">
		<use xlink:href="#SVGID_1_"  style="overflow:visible;"/>
	</clipPath>
	<path class="st1" d="M33.2,9.7c-5.5,0-10,4.5-10,10s4.5,10,10,10c5.5,0,10-4.5,10-10S38.8,9.7,33.2,9.7 M33.2,26.4
		c-3.7,0-6.7-3-6.7-6.7s3-6.7,6.7-6.7c3.7,0,6.7,3,6.7,6.7S36.9,26.4,33.2,26.4"/>
	<path class="st1" d="M126.6,0c-5.5,0-10,4.5-10,10s4.5,10,10,10c5.5,0,10-4.5,10-10S132.1,0,126.6,0 M126.6,16.7
		c-3.7,0-6.7-3-6.7-6.7c0-3.7,3-6.7,6.7-6.7c3.7,0,6.7,3,6.7,6.7C133.2,13.7,130.3,16.7,126.6,16.7"/>
	<polygon class="st1" points="47.5,10 54.1,29.4 57.3,29.4 60.3,18.2 63.4,29.4 66.6,29.4 73.2,10 69.5,10 65,24.8 62,13 58.8,13 
		55.8,24.8 51.3,10 	"/>
	<polygon class="st1" points="80.4,10 80.4,29.3 83.9,29.3 83.9,21.5 91.6,21.5 91.6,18.4 83.9,18.4 83.9,13.1 94.6,13.1 94.6,10 	
		"/>
	<polygon class="st1" points="103,10 103,29.3 116.6,29.3 116.6,26.3 106.5,26.3 106.5,10 	"/>
	<path class="st1" d="M150.2,10h-3.5l-8.2,19.3h3.5l1.8-4.5h9.1l1.8,4.5h3.6L150.2,10z M145.1,21.9l3.4-8.2l3.4,8.2H145.1z"/>
	<polygon class="st1" points="167,29.3 170.6,29.3 170.6,13.2 176.7,13.2 176.7,10 160.9,10 160.9,13.2 167,13.2 	"/>
	<path class="st1" d="M182,26.8c1.1,0.9,2.3,1.6,3.5,2.1c1.4,0.5,2.9,0.8,4.4,0.8c1,0,2-0.1,2.9-0.4c0.8-0.3,1.6-0.6,2.2-1.1
		c0.6-0.5,1.1-1.1,1.4-1.8c0.3-0.7,0.5-1.5,0.5-2.5v-0.1c0-0.8-0.1-1.5-0.4-2.1c-0.2-0.6-0.6-1.1-1.1-1.5c-0.5-0.4-1.2-0.8-1.9-1.1
		c-0.8-0.3-1.7-0.6-2.7-0.9c-0.9-0.2-1.6-0.4-2.2-0.6c-0.6-0.2-1.1-0.4-1.5-0.6c-0.4-0.2-0.7-0.5-0.9-0.8c-0.2-0.3-0.2-0.7-0.2-1.1
		V15c0-0.7,0.3-1.2,0.8-1.6c0.5-0.4,1.3-0.6,2.2-0.6c0.9,0,1.9,0.2,2.8,0.6c0.8,0.3,1.6,0.7,2.4,1.2L196,12
		c-0.9-0.7-1.9-1.2-2.9-1.6c-1.2-0.4-2.5-0.6-3.9-0.6c-1,0-1.9,0.1-2.7,0.4c-0.8,0.3-1.5,0.7-2.1,1.2c-0.6,0.5-1,1.1-1.3,1.8
		c-0.3,0.7-0.5,1.5-0.5,2.3v0.1c0,0.9,0.1,1.7,0.4,2.3c0.3,0.6,0.7,1.1,1.2,1.5c0.5,0.4,1.2,0.8,2,1.1c0.8,0.3,1.7,0.6,2.7,0.8
		c0.9,0.2,1.6,0.4,2.1,0.6c0.6,0.2,1,0.4,1.3,0.6c0.4,0.2,0.6,0.5,0.8,0.8c0.1,0.3,0.2,0.6,0.2,1v0.1c0,0.8-0.3,1.4-1,1.8
		c-0.6,0.4-1.4,0.6-2.4,0.6c-1.2,0-2.4-0.2-3.4-0.7c-0.9-0.4-1.7-0.9-2.6-1.6L182,26.8z"/>
	<polygon class="st1" points="203.5,10.8 201.5,10.8 201.5,10.1 206.2,10.1 206.2,10.8 204.2,10.8 204.2,16.1 203.5,16.1 	"/>
	<polygon class="st1" points="207.5,10.1 208.2,10.1 210.4,13.4 212.6,10.1 213.3,10.1 213.3,16.1 212.6,16.1 212.6,11.3 
		210.4,14.5 210.4,14.5 208.2,11.3 208.2,16.1 207.5,16.1 	"/>
</g>
</svg>
